<?xml version="1.0" encoding="UTF-8" standalone="no"?>
<!-- Created with Inkscape (http://www.inkscape.org/) -->

<svg
   xmlns:dc="http://purl.org/dc/elements/1.1/"
   xmlns:cc="http://creativecommons.org/ns#"
   xmlns:rdf="http://www.w3.org/1999/02/22-rdf-syntax-ns#"
   xmlns:svg="http://www.w3.org/2000/svg"
   xmlns="http://www.w3.org/2000/svg"
   xmlns:xlink="http://www.w3.org/1999/xlink"
   xmlns:sodipodi="http://sodipodi.sourceforge.net/DTD/sodipodi-0.dtd"
   xmlns:inkscape="http://www.inkscape.org/namespaces/inkscape"
   width="744.09448819"
   height="1052.3622047"
   id="svg2"
   version="1.1"
   inkscape:version="0.48.2 r9819"
   sodipodi:docname="New document 1">
  <defs
     id="defs4">
    <linearGradient
       y2="42.025642"
       y1="12.897436"
       xlink:href="#linearGradient2166"
       x2="63.358974"
       x1="97.410255"
       inkscape:collect="always"
       id="linearGradient2176"
       gradientUnits="userSpaceOnUse"
       gradientTransform="translate(-0.384615,8.589744)" />
    <linearGradient
       y2="12.000000"
       y1="41.000000"
       xlink:href="#linearGradient2166"
       x2="95.000000"
       x1="61.000000"
       inkscape:collect="always"
       id="linearGradient2172"
       gradientUnits="userSpaceOnUse"
       gradientTransform="translate(-0.384615,8.589744)" />
    <linearGradient
       y2="252.56595"
       y1="116.75391"
       xlink:href="#linearGradient4596"
       x2="114.05755"
       x1="235.61192"
       inkscape:collect="always"
       id="linearGradient1465"
       gradientUnits="userSpaceOnUse"
       gradientTransform="matrix(0.20666657,0,0,0.29665414,346.09689,-4.1233156)" />
    <linearGradient
       y2="238.82950"
       y1="130.01851"
       xlink:href="#linearGradient4596"
       x2="217.15807"
       x1="326.81689"
       inkscape:collect="always"
       id="linearGradient1462"
       gradientUnits="userSpaceOnUse"
       gradientTransform="matrix(0.22763566,0,0,0.26932622,346.09689,-4.1233156)" />
    <linearGradient
       y2="167.66830"
       y1="150.88824"
       xlink:href="#linearGradient4580"
       x2="492.41907"
       x1="527.32153"
       inkscape:collect="always"
       id="linearGradient1427"
       gradientUnits="userSpaceOnUse"
       gradientTransform="matrix(0.13755012,0,0,0.44571625,346.09689,-4.1233156)" />
    <linearGradient
       y2="292.66122"
       y1="274.57022"
       xlink:href="#linearGradient4564"
       x2="111.20063"
       x1="202.96553"
       inkscape:collect="always"
       id="linearGradient1423"
       gradientUnits="userSpaceOnUse"
       gradientTransform="matrix(0.26348187,0,0,0.23268485,346.09689,-4.1233156)" />
    <linearGradient
       y2="375.61340"
       y1="318.34311"
       xlink:href="#linearGradient4564"
       x2="46.403519"
       x1="112.91104"
       inkscape:collect="always"
       id="linearGradient1418"
       gradientUnits="userSpaceOnUse"
       gradientTransform="matrix(0.34373107,0,0,0.17836079,346.09689,-4.1233156)" />
    <linearGradient
       y2="192.04648"
       y1="123.37365"
       xlink:href="#linearGradient4580"
       x2="363.25043"
       x1="438.70776"
       inkscape:collect="always"
       id="linearGradient1406"
       gradientUnits="userSpaceOnUse"
       gradientTransform="matrix(0.19443755,0,0,0.31531169,346.09689,-4.1233156)" />
    <linearGradient
       y2="895.68713"
       y1="1079.7177"
       xlink:href="#linearGradient1017"
       x2="441.94626"
       x1="97.909615"
       inkscape:collect="always"
       id="linearGradient6641"
       gradientUnits="userSpaceOnUse"
       gradientTransform="scale(1.154701,0.866025)" />
    <linearGradient
       y2="1285.3988"
       y1="1285.3988"
       xlink:href="#linearGradient1017"
       x2="84.609047"
       x1="181.43164"
       inkscape:collect="always"
       id="linearGradient5876"
       gradientUnits="userSpaceOnUse"
       gradientTransform="scale(1.154701,0.866025)" />
    <linearGradient
       y2="21.069715"
       y1="813.86875"
       xlink:href="#linearGradient6517"
       x2="841.63058"
       x1="45.506061"
       inkscape:collect="always"
       id="linearGradient5092"
       gradientUnits="userSpaceOnUse"
       gradientTransform="matrix(0.928107,0.000000,0.000000,0.696080,-112.1865,694.2911)" />
    <linearGradient
       id="linearGradient8387">
      <stop
         style="stop-color:#ffffff;stop-opacity:0.0000000;"
         offset="0.0000000"
         id="stop8388" />
      <stop
         style="stop-color:#ffffff;stop-opacity:0.098039217;"
         offset="0.42613181"
         id="stop8392" />
      <stop
         style="stop-color:#ffffff;stop-opacity:0.16853933;"
         offset="0.52207208"
         id="stop8389" />
      <stop
         style="stop-color:#ffffff;stop-opacity:0.098039217;"
         offset="0.63933450"
         id="stop8391" />
      <stop
         style="stop-color:#ffffff;stop-opacity:0.0000000;"
         offset="1.0000000"
         id="stop8390" />
    </linearGradient>
    <linearGradient
       id="linearGradient6517">
      <stop
         style="stop-color:#002f8a;stop-opacity:1.0000000;"
         offset="0.0000000"
         id="stop6518" />
      <stop
         style="stop-color:#005dcc;stop-opacity:1.0000000;"
         offset="1.0000000"
         id="stop6520" />
    </linearGradient>
    <linearGradient
       id="linearGradient2152">
      <stop
         style="stop-color:#ffffff;stop-opacity:1.0000000;"
         offset="0.0000000"
         id="stop2153" />
      <stop
         style="stop-color:#ffffff;stop-opacity:0.49803922;"
         offset="0.0099999998"
         id="stop2778" />
      <stop
         style="stop-color:#ffffff;stop-opacity:0.0000000;"
         offset="1.0000000"
         id="stop2154" />
    </linearGradient>
    <linearGradient
       y2="-157.47727"
       y1="-177.46144"
       xlink:href="#linearGradient1022"
       x2="9.7079431"
       x1="-8.4761826"
       id="linearGradient1021"
       gradientUnits="userSpaceOnUse"
       gradientTransform="scale(1.578926,0.633342)" />
    <linearGradient
       y2="-127.91295"
       y1="-154.59495"
       xlink:href="#linearGradient1017"
       x2="12.010341"
       x1="-3.1914111"
       id="linearGradient1025"
       gradientUnits="userSpaceOnUse"
       gradientTransform="scale(1.555191,0.643008)" />
    <linearGradient
       y2="-178.84083"
       y1="-210.38923"
       xlink:href="#linearGradient1017"
       x2="-19.672826"
       x1="-27.045366"
       id="linearGradient1026"
       gradientUnits="userSpaceOnUse"
       gradientTransform="scale(1.916124,0.521887)" />
    <linearGradient
       id="linearGradient2302">
      <stop
         style="stop-color:#2c3d78;stop-opacity:1.0000000;"
         offset="0.0000000"
         id="stop2303" />
      <stop
         style="stop-color:#ffffff;stop-opacity:1.0000000;"
         offset="1.0000000"
         id="stop2304" />
    </linearGradient>
    <linearGradient
       id="linearGradient1022">
      <stop
         style="stop-color:#000000;stop-opacity:0.40833300;"
         offset="0.0000000"
         id="stop1024" />
      <stop
         style="stop-color:#000000;stop-opacity:0.0000000;"
         offset="1.0000000"
         id="stop1023" />
    </linearGradient>
    <linearGradient
       id="linearGradient1017">
      <stop
         style="stop-color:#ffffff;stop-opacity:0.17500000;"
         offset="0.0000000"
         id="stop1019" />
      <stop
         style="stop-color:#ffffff;stop-opacity:0.37500000;"
         offset="1.0000000"
         id="stop1018" />
    </linearGradient>
    <defs
       id="defs877">
      <linearGradient
         y2="0.50000000"
         y1="0.50000000"
         xlink:href="#linearGradient1017"
         x2="1.0000000"
         x1="0.0000000"
         spreadMethod="pad"
         id="linearGradient585"
         gradientUnits="objectBoundingBox" />
      <linearGradient
         y2="0.50000000"
         y1="0.50000000"
         xlink:href="#linearGradient1022"
         x2="1.0000000"
         x1="0.0000000"
         spreadMethod="pad"
         id="linearGradient579"
         gradientUnits="objectBoundingBox" />
      <linearGradient
         y2="0.60227275"
         y1="0.51136363"
         xlink:href="#linearGradient579"
         x2="0.41176471"
         x1="0.48529410"
         id="linearGradient582" />
      <linearGradient
         y2="1.09649122"
         y1="0.12280702"
         xlink:href="#linearGradient585"
         x2="0.32720590"
         x1="0.50735295"
         id="linearGradient584" />
      <linearGradient
         xlink:href="#linearGradient585"
         id="linearGradient589" />
    </defs>
    <linearGradient
       id="linearGradient3658">
      <stop
         style="stop-color:#ffff47;stop-opacity:1;"
         offset="0"
         id="stop3660" />
      <stop
         style="stop-color:#ffdd47;stop-opacity:1.0000000;"
         offset="1.0000000"
         id="stop3662" />
    </linearGradient>
    <linearGradient
       id="linearGradient4564">
      <stop
         style="stop-color:#c6a965;stop-opacity:1;"
         offset="0"
         id="stop4566" />
      <stop
         style="stop-color:#b79d5d;stop-opacity:1.0000000;"
         offset="1.0000000"
         id="stop4568" />
    </linearGradient>
    <linearGradient
       id="linearGradient4580">
      <stop
         style="stop-color:#d3b46b;stop-opacity:1;"
         offset="0"
         id="stop4582" />
      <stop
         style="stop-color:#ad9457;stop-opacity:1.0000000;"
         offset="1.0000000"
         id="stop4584" />
    </linearGradient>
    <linearGradient
       id="linearGradient4596">
      <stop
         style="stop-color:#937541;stop-opacity:1;"
         offset="0"
         id="stop4598" />
      <stop
         style="stop-color:#524124;stop-opacity:1.0000000;"
         offset="1.0000000"
         id="stop4600" />
    </linearGradient>
    <linearGradient
       id="linearGradient4612">
      <stop
         style="stop-color:#193670;stop-opacity:1;"
         offset="0"
         id="stop4614" />
      <stop
         style="stop-color:#132955;stop-opacity:1.0000000;"
         offset="1.0000000"
         id="stop4616" />
    </linearGradient>
    <linearGradient
       id="linearGradient2166">
      <stop
         style="stop-color:#009300;stop-opacity:1.0000000;"
         offset="0.0000000"
         id="stop2168" />
      <stop
         style="stop-color:#00cd00;stop-opacity:1.0000000;"
         offset="1.0000000"
         id="stop2170" />
    </linearGradient>
    <linearGradient
       inkscape:collect="always"
       xlink:href="#linearGradient4580"
       id="linearGradient3924"
       gradientUnits="userSpaceOnUse"
       gradientTransform="matrix(0.32351099,0,0,0.52462499,833.60407,552.77093)"
       x1="438.70776"
       y1="123.37365"
       x2="363.25043"
       y2="192.04648" />
    <linearGradient
       inkscape:collect="always"
       xlink:href="#linearGradient4564"
       id="linearGradient3928"
       gradientUnits="userSpaceOnUse"
       gradientTransform="matrix(0.57191,0,0,0.296762,833.60407,552.77093)"
       x1="112.91104"
       y1="318.34311"
       x2="46.403519"
       y2="375.61340" />
    <linearGradient
       inkscape:collect="always"
       xlink:href="#linearGradient4564"
       id="linearGradient3932"
       gradientUnits="userSpaceOnUse"
       gradientTransform="matrix(0.43838899,0,0,0.38714799,833.60407,552.77093)"
       x1="202.96553"
       y1="274.57022"
       x2="111.20063"
       y2="292.66122" />
    <linearGradient
       inkscape:collect="always"
       xlink:href="#linearGradient4580"
       id="linearGradient3935"
       gradientUnits="userSpaceOnUse"
       gradientTransform="matrix(0.22885999,0,0,0.74159598,833.60407,552.77093)"
       x1="527.32153"
       y1="150.88824"
       x2="492.41907"
       y2="167.66830" />
    <linearGradient
       inkscape:collect="always"
       xlink:href="#linearGradient4596"
       id="linearGradient3938"
       gradientUnits="userSpaceOnUse"
       gradientTransform="matrix(0.37874699,0,0,0.44811299,833.60407,552.77093)"
       x1="326.81689"
       y1="130.01851"
       x2="217.15807"
       y2="238.82950" />
    <linearGradient
       inkscape:collect="always"
       xlink:href="#linearGradient4596"
       id="linearGradient3941"
       gradientUnits="userSpaceOnUse"
       gradientTransform="matrix(0.343858,0,0,0.493582,833.60407,552.77093)"
       x1="235.61192"
       y1="116.75391"
       x2="114.05755"
       y2="252.56595" />
    <linearGradient
       inkscape:collect="always"
       xlink:href="#linearGradient4596"
       id="linearGradient4038"
       gradientUnits="userSpaceOnUse"
       gradientTransform="matrix(0.343858,0,0,0.493582,817.88978,541.34236)"
       x1="235.61192"
       y1="116.75391"
       x2="114.05755"
       y2="252.56595" />
    <linearGradient
       inkscape:collect="always"
       xlink:href="#linearGradient4596"
       id="linearGradient4040"
       gradientUnits="userSpaceOnUse"
       gradientTransform="matrix(0.37874699,0,0,0.44811299,817.88978,541.34236)"
       x1="326.81689"
       y1="130.01851"
       x2="217.15807"
       y2="238.82950" />
    <linearGradient
       inkscape:collect="always"
       xlink:href="#linearGradient4580"
       id="linearGradient4042"
       gradientUnits="userSpaceOnUse"
       gradientTransform="matrix(0.22885999,0,0,0.74159598,817.88978,541.34236)"
       x1="527.32153"
       y1="150.88824"
       x2="492.41907"
       y2="167.66830" />
    <linearGradient
       inkscape:collect="always"
       xlink:href="#linearGradient4564"
       id="linearGradient4044"
       gradientUnits="userSpaceOnUse"
       gradientTransform="matrix(0.43838899,0,0,0.38714799,817.88978,541.34236)"
       x1="202.96553"
       y1="274.57022"
       x2="111.20063"
       y2="292.66122" />
    <linearGradient
       inkscape:collect="always"
       xlink:href="#linearGradient4564"
       id="linearGradient4046"
       gradientUnits="userSpaceOnUse"
       gradientTransform="matrix(0.57191,0,0,0.296762,817.88978,541.34236)"
       x1="112.91104"
       y1="318.34311"
       x2="46.403519"
       y2="375.61340" />
    <linearGradient
       inkscape:collect="always"
       xlink:href="#linearGradient4580"
       id="linearGradient4048"
       gradientUnits="userSpaceOnUse"
       gradientTransform="matrix(0.32351099,0,0,0.52462499,817.88978,541.34236)"
       x1="438.70776"
       y1="123.37365"
       x2="363.25043"
       y2="192.04648" />
    <linearGradient
       inkscape:collect="always"
       xlink:href="#linearGradient4580"
       id="linearGradient4052"
       gradientUnits="userSpaceOnUse"
       gradientTransform="matrix(0.32351099,0,0,0.52462499,833.60407,552.77093)"
       x1="438.70776"
       y1="123.37365"
       x2="363.25043"
       y2="192.04648" />
    <linearGradient
       inkscape:collect="always"
       xlink:href="#linearGradient4564"
       id="linearGradient4056"
       gradientUnits="userSpaceOnUse"
       gradientTransform="matrix(0.57191,0,0,0.296762,833.60407,552.77093)"
       x1="112.91104"
       y1="318.34311"
       x2="46.403519"
       y2="375.61340" />
    <linearGradient
       inkscape:collect="always"
       xlink:href="#linearGradient4564"
       id="linearGradient4060"
       gradientUnits="userSpaceOnUse"
       gradientTransform="matrix(0.43838899,0,0,0.38714799,833.60407,552.77093)"
       x1="202.96553"
       y1="274.57022"
       x2="111.20063"
       y2="292.66122" />
    <linearGradient
       inkscape:collect="always"
       xlink:href="#linearGradient4580"
       id="linearGradient4063"
       gradientUnits="userSpaceOnUse"
       gradientTransform="matrix(0.22885999,0,0,0.74159598,833.60407,552.77093)"
       x1="527.32153"
       y1="150.88824"
       x2="492.41907"
       y2="167.66830" />
    <linearGradient
       inkscape:collect="always"
       xlink:href="#linearGradient4596"
       id="linearGradient4066"
       gradientUnits="userSpaceOnUse"
       gradientTransform="matrix(0.37874699,0,0,0.44811299,833.60407,552.77093)"
       x1="326.81689"
       y1="130.01851"
       x2="217.15807"
       y2="238.82950" />
    <linearGradient
       inkscape:collect="always"
       xlink:href="#linearGradient4596"
       id="linearGradient4069"
       gradientUnits="userSpaceOnUse"
       gradientTransform="matrix(0.343858,0,0,0.493582,833.60407,552.77093)"
       x1="235.61192"
       y1="116.75391"
       x2="114.05755"
       y2="252.56595" />
    <clipPath
       clipPathUnits="userSpaceOnUse"
       id="clipPath4073">
      <path
         sodipodi:nodetypes="cccccccscccccccscccccccsccscccscccccccccccccccccccccccccccccccccccccc"
         inkscape:connector-curvature="0"
         id="path4075"
         d="m -115.0847,484.18432 c 0,0 2.12275,-0.26363 2.92146,1.62416 1.57344,0.43654 3.16375,0.99539 2.87476,2.70667 1.28711,1.27144 2.01403,2.78538 0.9767,4.34788 0.88115,1.68156 1.59687,3.14155 0.75674,4.60518 1.01348,1.59917 -0.005,2.81841 -1.42682,3.7045 -0.14512,2.03515 -1.15669,3.44335 -3.64087,3.50759 1.23702,1.06294 6.30872,12.89499 1.9068,15.44394 -0.0511,0.0295 -1.17822,1.10461 -1.88691,-0.67565 0.26183,-0.38685 1.41097,-1.01428 0.36133,-2.71242 -0.0688,-2.23004 -0.95419,-8.48589 -1.44083,-11.222 -0.95614,0.17151 -1.81015,0.25721 -2.06399,-0.18062 -0.86793,0.73815 -1.28586,0.81103 -1.94896,0.91963 0.83993,8.62202 -1.21801,7.85905 -1.20268,10.59346 0.59725,-0.17658 0.98741,0.1228 1.49474,0.58701 1.15047,-0.31386 2.51881,-0.19331 2.49046,-0.18218 -0.13179,0.0515 3.48879,3.17873 3.34304,3.21607 1.26797,1.04563 -0.0261,2.69486 -3.05133,1.8089 0.34892,1.54639 0.28078,1.58463 0.71412,2.36657 -0.15195,0.74099 -1.09464,0.96259 -2.25225,0.8152 -0.0418,1.23674 -2.82471,0.4853 -4.78823,-1.38603 1.00343,2.40702 -4.56245,0.51295 -5.79047,-1.0854 -29.34596,5.52432 -58.55252,10.56149 -58.55252,10.56149 1.79907,1.50652 3.01113,3.70325 0.46306,4.05623 -1.20162,0.16645 -2.69054,0.0581 -5.99114,-3.20293 -0.51952,-0.29566 0.11875,0.69001 -0.47506,0.29917 1.10917,1.38364 2.75493,4.27185 1.539,5.68458 -1.63701,1.90195 -3.33932,-0.48756 -5.7908,-4.44891 -0.27392,-0.41143 0.0326,0.99582 -0.26923,0.48421 2.09734,5.87007 -0.58769,7.47667 -5.12979,0.32637 0.41873,2.96668 0.56704,4.18848 -0.80445,4.48286 -1.97639,0.42422 -1.96989,-0.82665 -4.45977,-3.24232 0,0 -2.71868,-6.74585 3.35275,-4.83609 0.69346,-0.89152 0.97234,-0.69814 1.65614,-1.32638 -0.7065,-0.0131 -0.77366,-0.59552 -1.5508,-1.43017 -0.0438,1.06323 -0.0582,1.03952 -0.0466,1.76406 -0.55375,-0.24565 -1.24166,-0.19103 -1.89971,-1.05802 0.0893,1.20047 0.028,1.07152 -0.37338,1.71984 -2.32259,-1.84357 -4.97653,-8.15352 -6.32967,-14.70233 -0.57508,0.0277 -0.74587,0.52473 -1.99121,0.21228 -0.90817,7.53121 -0.93992,12.13685 -0.22678,14.1064 2.26092,1.93305 3.84101,2.93391 4.01262,5.95126 -1.39404,0.33337 -4.77165,0.7917 -4.77165,0.7917 0.13419,-0.2825 0.23119,-1.55722 0.22737,-3.26848 -0.62448,0.23038 -1.49147,-1.07887 -0.59149,-1.55337 -3.82896,-4.58827 -2.74441,-9.73623 -0.83471,-16.57088 -0.51679,0.28724 -2.74995,0.61392 -3.26927,-1.27924 -1.9862,-0.56008 -2.91138,-1.54595 -2.74514,-3.71242 -1.09531,-0.31778 -1.51014,-1.6784 -1.1953,-2.63986 -2.66522,-0.97303 -1.33234,-3.70377 -0.70734,-3.88826 -1.46154,-1.53962 -0.46383,-3.16365 0.80228,-2.98747 -1.49272,-2.01974 0.90741,-3.64946 1.30314,-3.68952 -0.84951,-1.90304 1.7251,-3.42134 2.98482,-2.82115 0.51793,-1.61278 2.02456,-2.18505 3.70388,-1.89535 0.0936,-0.32658 0.10725,-1.60791 0.0539,-2.38777 -3.86685,-5.09962 -9.56738,-18.4458 -11.44991,-27.02454 1.02866,-0.97715 2.74921,-0.38485 3.27525,-0.4842 6.32625,-3.17943 14.21111,-5.07114 19.61918,-5.63204 7.67656,-10.49968 13.62459,-11.1797 19.57334,-13.31957 0.13841,-1.00555 0.0647,-0.84793 0.17692,-2.01459 4.19055,-2.93025 8.09694,-4.02688 12.90529,-5.80156 2.45348,-0.5119 4.56355,-0.10238 5.49065,-0.2107 4.80289,1.74225 9.13574,3.60952 12.72321,5.37596 0.58439,1.25276 -0.0649,1.99872 0.49236,3.31076 2.97787,0.18354 13.60055,2.93058 17.95637,8.17735 9.59164,-3.23343 20.83958,-0.85421 24.96045,-1.39382 0.43565,4.13485 -2.55155,17.84884 -2.08819,18.87221 -0.8293,4.09927 -2.0739,4.97726 -4.07483,11.84279 z"
         style="fill:none;stroke:#ff00ff;stroke-width:0.87434423;stroke-opacity:0.50196078" />
    </clipPath>
  </defs>
  <sodipodi:namedview
     id="base"
     pagecolor="#ffffff"
     bordercolor="#666666"
     borderopacity="1.0"
     inkscape:pageopacity="0.0"
     inkscape:pageshadow="2"
     inkscape:zoom="0.98994949"
     inkscape:cx="504.49353"
     inkscape:cy="371.43657"
     inkscape:document-units="px"
     inkscape:current-layer="layer1"
     showgrid="false"
     inkscape:window-width="1366"
     inkscape:window-height="716"
     inkscape:window-x="-8"
     inkscape:window-y="-8"
     inkscape:window-maximized="1" />
  <metadata
     id="metadata7">
    <rdf:RDF>
      <cc:Work
         rdf:about="">
        <dc:format>image/svg+xml</dc:format>
        <dc:type
           rdf:resource="http://purl.org/dc/dcmitype/StillImage" />
        <dc:title></dc:title>
      </cc:Work>
    </rdf:RDF>
  </metadata>
  <g
     inkscape:label="Layer 1"
     inkscape:groupmode="layer"
     id="layer1">
    <g
       id="g6343"
       inkscape:groupmode="layer"
       inkscape:label="Layer 1"
       transform="matrix(1.6638298,0,0,1.6638298,1120.4785,970.81519)" />
    <g
       id="g9086"
       inkscape:groupmode="layer"
       inkscape:label="Layer 1"
       transform="matrix(1.6638298,0,0,1.6638298,980.71676,740.60403)" />
    <g
       id="g4089"
       inkscape:export-filename="D:\Pictures\assets\cartonbox\momi.png"
       inkscape:export-xdpi="96"
       inkscape:export-ydpi="96">
      <path
         style="fill:#79673d;fill-opacity:1;fill-rule:nonzero;stroke:none"
         sodipodi:nodetypes="ccccccccccc"
         id="path5973"
         d="m 387.46505,603.03545 -83.65862,37.84061 -26.92913,59.48689 c 0,0 19.54697,2.48808 28.3867,3.92282 l 0.7806,25.21046 120.13514,21.04347 42.14073,-54.23854 0.43434,-21.13718 15.79647,-21.82834 -17.40156,-39.37881 -79.68467,-10.92138 z"
         inkscape:connector-curvature="0" />
      <path
         style="fill:url(#linearGradient4069);fill-opacity:1;fill-rule:evenodd;stroke:none"
         sodipodi:nodetypes="ccccc"
         id="path3628"
         d="m 306.02191,641.88543 c 2.35024,-1.56683 81.72963,-38.01743 81.72963,-38.01743 l 4.00915,91.3349 c 0,0 -84.37951,33.24994 -84.37951,31.6831 0,-1.56683 -1.35927,-85.00057 -1.35927,-85.00057 z"
         inkscape:connector-curvature="0" />
      <path
         style="fill:url(#linearGradient4066);fill-opacity:1;fill-rule:evenodd;stroke:none"
         sodipodi:nodetypes="ccccc"
         id="path3626"
         d="m 465.9851,615.58663 -78.23465,-11.6615 3.90392,91.34379 74.53831,1.30913 -0.20758,-80.99142 z"
         inkscape:connector-curvature="0" />
      <path
         style="fill:url(#linearGradient4063);fill-opacity:1;fill-rule:evenodd;stroke:none"
         sodipodi:nodetypes="ccccc"
         id="path2085"
         d="m 425.3396,657.31521 c 2.35024,-3.13366 40.68959,-41.45368 40.68959,-41.45368 l -0.0735,80.52381 -40.81968,51.98632 0.20364,-91.05645 z"
         inkscape:connector-curvature="0" />
      <path
         style="fill:url(#linearGradient4060);fill-opacity:1;fill-rule:evenodd;stroke:none"
         id="path2083"
         d="m 305.47703,642.03861 120.64598,15.2766 -0.78341,91.26789 -117.90403,-20.7605 -1.95854,-85.78399 z"
         inkscape:connector-curvature="0" />
      <path
         style="fill:#79673d;fill-opacity:1;fill-rule:evenodd;stroke:none"
         sodipodi:nodetypes="ccccc"
         id="path5971"
         d="m 305.47703,641.92311 1.20674,61.82281 c 14.68225,3.8953 102.55059,17.76413 103.334,16.1973 0.78343,-1.56683 16.22073,-62.83557 16.22073,-61.33739 L 305.47703,641.92311 z"
         inkscape:connector-curvature="0" />
      <path
         style="fill:url(#linearGradient4056);fill-opacity:1;fill-rule:evenodd;stroke:none"
         sodipodi:nodetypes="ccccc"
         id="path3630"
         d="m 305.47703,641.92311 -25.461,56.1297 c 0,0 126.5216,20.7605 127.30501,19.19368 0.78341,-1.56685 18.01856,-59.53957 18.01856,-59.53957 L 305.47703,641.92311 z"
         inkscape:connector-curvature="0" />
      <path
         style="fill:#79673d;fill-opacity:1;fill-rule:evenodd;stroke:none"
         sodipodi:nodetypes="ccccc"
         id="path5969"
         d="m 425.43166,660.49573 16.42827,53.9418 24.99574,-36.37705 -1.17021,-62.658 -40.2538,45.09325 z"
         inkscape:connector-curvature="0" />
      <path
         style="fill:url(#linearGradient4052);fill-opacity:1;fill-rule:evenodd;stroke:none"
         sodipodi:nodetypes="ccccc"
         id="path3632"
         d="m 425.13203,657.19971 18.2261,50.64579 38.77908,-54.05567 -16.45175,-38.38735 -40.55343,41.79723 z"
         inkscape:connector-curvature="0" />
      <image
         style="fill:#000000;fill-opacity:0.50196078;stroke:#ff00ff;stroke-opacity:0.50196078"
         clip-path="url(#clipPath4073)"
         transform="matrix(-1.1417371,0.0672214,0.0672214,1.1417371,152.10063,56.692799)"
         width="130.75462"
         height="111.18589"
         xlink:href="file:///D:/Pictures/assets/6c64dc9004dac7464f730041ee282728.png"
         id="image3142"
         x="-227.27396"
         y="438.07645" />
    </g>
  </g>
</svg>
